HIERARCHY
ROOT hip
{
  OFFSET 0 0 0
  CHANNELS 6 Xposition Yposition Zposition Zrotation Yrotation Xrotation
  JOINT abdomen
  {
    OFFSET 0 20.6881 -0.73152
    CHANNELS 3 Zrotation Xrotation Yrotation
    JOINT chest
    {
      OFFSET 0 11.7043 -0.48768
      CHANNELS 3 Zrotation Xrotation Yrotation
      JOINT neck
      {
        OFFSET 0 22.1894 -2.19456
        CHANNELS 3 Zrotation Xrotation Yrotation
        JOINT head
        {
          OFFSET -0.24384 7.07133 1.2192
          CHANNELS 3 Zrotation Xrotation Yrotation
          JOINT leftEye
          {
            OFFSET 4.14528 8.04674 8.04672
            CHANNELS 3 Zrotation Xrotation Yrotation
            End Site
            {
              OFFSET 1 0 0
            }
          }
          JOINT rightEye
          {
            OFFSET -3.6576 8.04674 8.04672
            CHANNELS 3 Zrotation Xrotation Yrotation
            End Site
            {
              OFFSET 1 0 0
            }
          }
        }
      }
      JOINT rCollar
      {
        OFFSET -2.68224 19.2634 -4.8768
        CHANNELS 3 Zrotation Xrotation Yrotation
        JOINT rShldr
        {
          OFFSET -8.77824 -1.95073 1.46304
          CHANNELS 3 Zrotation Xrotation Yrotation
          JOINT rForeArm
          {
            OFFSET -28.1742 -1.7115 0.48768
            CHANNELS 3 Zrotation Xrotation Yrotation
            JOINT rHand
            {
              OFFSET -22.5879 0.773209 7.07136
              CHANNELS 3 Zrotation Xrotation Yrotation
              JOINT rThumb1
              {
                OFFSET -1.2192 -0.487915 3.41376
                CHANNELS 3 Zrotation Xrotation Yrotation
                JOINT rThumb2
                {
                  OFFSET -3.37035 -0.52449 3.41376
                  CHANNELS 3 Zrotation Xrotation Yrotation
                  End Site
                  {
                    OFFSET -1.78271 -1.18214 1.43049
                  }
                }
              }
              JOINT rIndex1
              {
                OFFSET -7.75947 0.938293 5.60832
                CHANNELS 3 Zrotation Xrotation Yrotation
                JOINT rIndex2
                {
                  OFFSET -2.54057 -0.884171 1.56538
                  CHANNELS 3 Zrotation Xrotation Yrotation
                  End Site
                  {
                    OFFSET -1.62519 -0.234802 1.16502
                  }
                }
              }
              JOINT rMid1
              {
                OFFSET -8.24714 1.18213 3.41376
                CHANNELS 3 Zrotation Xrotation Yrotation
                JOINT rMid2
                {
                  OFFSET -3.10165 -0.590103 1.0647
                  CHANNELS 3 Zrotation Xrotation Yrotation
                  End Site
                  {
                    OFFSET -2.48547 -0.328903 0.83742
                  }
                }
              }
              JOINT rRing1
              {
                OFFSET -8.82822 0.546677 1.51678
                CHANNELS 3 Zrotation Xrotation Yrotation
                JOINT rRing2
                {
                  OFFSET -2.60934 -0.819778 -0.0198488
                  CHANNELS 3 Zrotation Xrotation Yrotation
                  End Site
                  {
                    OFFSET -2.33842 -0.294052 0.168128
                  }
                }
              }
              JOINT rPinky1
              {
                OFFSET -8.27202 -0.0477905 -0.4584
                CHANNELS 3 Zrotation Xrotation Yrotation
                JOINT rPinky2
                {
                  OFFSET -1.82734 -0.647385 -0.700984
                  CHANNELS 3 Zrotation Xrotation Yrotation
                  End Site
                  {
                    OFFSET -1.69225 -0.51767 -0.607171
                  }
                }
              }
            }
          }
        }
      }
      JOINT lCollar
      {
        OFFSET 2.68224 19.2634 -4.8768
        CHANNELS 3 Zrotation Xrotation Yrotation
        JOINT lShldr
        {
          OFFSET 8.77824 -1.95073 1.46304
          CHANNELS 3 Zrotation Xrotation Yrotation
          JOINT lForeArm
          {
            OFFSET 28.1742 -1.7115 0.48768
            CHANNELS 3 Zrotation Xrotation Yrotation
            JOINT lHand
            {
              OFFSET 22.5879 0.773209 7.07136
              CHANNELS 3 Zrotation Xrotation Yrotation
              JOINT lThumb1
              {
                OFFSET 1.2192 -0.487915 3.41376
                CHANNELS 3 Zrotation Xrotation Yrotation
                JOINT lThumb2
                {
                  OFFSET 3.37035 -0.52449 3.41376
                  CHANNELS 3 Zrotation Xrotation Yrotation
                  End Site
                  {
                    OFFSET 1.78271 -1.18214 1.43049
                  }
                }
              }
              JOINT lIndex1
              {
                OFFSET 7.75947 0.938293 5.60832
                CHANNELS 3 Zrotation Xrotation Yrotation
                JOINT lIndex2
                {
                  OFFSET 2.54057 -0.884171 1.56538
                  CHANNELS 3 Zrotation Xrotation Yrotation
                  End Site
                  {
                    OFFSET 1.62519 -0.234802 1.16502
                  }
                }
              }
              JOINT lMid1
              {
                OFFSET 8.24714 1.18213 3.41376
                CHANNELS 3 Zrotation Xrotation Yrotation
                JOINT lMid2
                {
                  OFFSET 3.10165 -0.590103 1.0647
                  CHANNELS 3 Zrotation Xrotation Yrotation
                  End Site
                  {
                    OFFSET 2.48547 -0.328903 0.83742
                  }
                }
              }
              JOINT lRing1
              {
                OFFSET 8.82822 0.546677 1.51678
                CHANNELS 3 Zrotation Xrotation Yrotation
                JOINT lRing2
                {
                  OFFSET 2.60934 -0.819778 -0.0198488
                  CHANNELS 3 Zrotation Xrotation Yrotation
                  End Site
                  {
                    OFFSET 2.33842 -0.294052 0.168128
                  }
                }
              }
              JOINT lPinky1
              {
                OFFSET 8.27202 -0.0477905 -0.4584
                CHANNELS 3 Zrotation Xrotation Yrotation
                JOINT lPinky2
                {
                  OFFSET 1.82734 -0.647385 -0.700984
                  CHANNELS 3 Zrotation Xrotation Yrotation
                  End Site
                  {
                    OFFSET 1.69225 -0.51767 -0.607171
                  }
                }
              }
            }
          }
        }
      }
    }
  }
  JOINT rButtock
  {
    OFFSET -8.77824 4.35084 1.2192
    CHANNELS 3 Zrotation Xrotation Yrotation
    JOINT rThigh
    {
      OFFSET 0 -1.70687 -2.19456
      CHANNELS 3 Zrotation Xrotation Yrotation
      JOINT rShin
      {
        OFFSET 0 -36.8199 0.73152
        CHANNELS 3 Zrotation Xrotation Yrotation
        JOINT rFoot
        {
          OFFSET 0.73152 -45.1104 -5.12064
          CHANNELS 3 Zrotation Xrotation Yrotation
          End Site
          {
            OFFSET -1.1221 -3.69964 12.103
          }
        }
      }
    }
  }
  JOINT lButtock
  {
    OFFSET 8.77824 4.35084 1.2192
    CHANNELS 3 Zrotation Xrotation Yrotation
    JOINT lThigh
    {
      OFFSET 0 -1.70687 -2.19456
      CHANNELS 3 Zrotation Xrotation Yrotation
      JOINT lShin
      {
        OFFSET 0 -36.8199 0.73152
        CHANNELS 3 Zrotation Xrotation Yrotation
        JOINT lFoot
        {
          OFFSET -0.73152 -45.1104 -5.12064
          CHANNELS 3 Zrotation Xrotation Yrotation
          End Site
          {
            OFFSET 1.1221 -3.69964 12.103
          }
        }
      }
    }
  }
}
MOTION
Frames:	5
Frame Time:	0.00833333
-44.5834 76.2961 35.7987 -42.0513 64.8453 -16.3724 7.67912 35.9338 11.1526 -2.87998 -0.612096 4.02331 -2.76767 9.33305 -2.87499 26.7604 -54.5934 9.453 -0.0 0.0 0.0 -0.0 0.0 0.0 2.97434e-13 5.10281e-12 -7.49865e-13 75.1669 -11.5269 28.2138 -25.4862 -22.1813 54.7304 -2.25599 -38.5865 -6.43858 2.09065e-09 1.48546e-09 -1.79948e-09 3.6603e-09 2.40859e-09 -3.05973e-09 2.09065e-09 1.48547e-09 -1.79948e-09 7.73091 5.47488 0.417314 2.09065e-09 1.48547e-09 -1.79947e-09 2.90554 0.965183 0.102902 2.09066e-09 1.48547e-09 -1.79947e-09 10.2786 0.731801 0.0259123 2.09065e-09 1.48547e-09 -1.79947e-09 2.22167 -0.733487 -0.20892 2.973e-13 5.10279e-12 -7.49965e-13 -109.284 45.4295 44.5943 19.2901 -12.1443 -36.9831 0.460104 -18.9188 2.76097 -4.95136e-09 1.37995e-09 7.80928e-10 -8.55969e-09 2.35789e-09 1.28043e-09 -4.95138e-09 1.37995e-09 7.80953e-10 -7.73091 5.47488 -0.417314 -4.95136e-09 1.37995e-09 7.80931e-10 -2.90554 0.965183 -0.102902 -4.95137e-09 1.37995e-09 7.80931e-10 -10.2786 0.731801 -0.0259123 -4.95136e-09 1.37995e-09 7.80928e-10 -2.22167 -0.733487 0.20892 -2.03217e-16 0.0 -3.88251e-19 -0.0511396 18.0114 -7.03746 0.00463239 -0.432457 0.0410732 -0.127619 18.4328 -1.84606 2.03217e-16 0.0 3.88251e-19 39.0886 -71.2271 61.129 0.655537 52.6231 -1.28126 -0.891131 -0.680062 -4.71922
-41.4102 76.4159 36.988 -45.8917 65.013 -20.019 8.48115 35.2385 9.9205 -2.67404 -0.468424 3.75984 -3.5059 9.39794 -2.4173 29.0293 -53.9401 11.6122 -0.0 0.0 0.0 -0.0 0.0 0.0 2.95612e-13 4.48025e-12 -6.94198e-13 76.38 -10.1817 25.9236 -26.0669 -23.5693 57.3009 -2.5943 -40.6946 -6.95187 1.9542e-09 2.02484e-09 -2.00035e-09 3.433e-09 3.32142e-09 -3.40533e-09 1.9542e-09 2.02484e-09 -2.00035e-09 7.73091 5.47488 0.417314 1.9542e-09 2.02485e-09 -2.00035e-09 2.90554 0.965183 0.102902 1.95421e-09 2.02485e-09 -2.00035e-09 10.2786 0.731801 0.0259123 1.9542e-09 2.02485e-09 -2.00034e-09 2.22167 -0.733487 -0.20892 2.95488e-13 4.48024e-12 -6.94305e-13 -108.46 44.1358 42.3639 19.2446 -12.0891 -36.8795 0.47549 -19.2109 2.8071 -4.40858e-09 1.19052e-09 4.03694e-10 -7.61653e-09 2.0312e-09 6.34699e-10 -4.4086e-09 1.19053e-09 4.0372e-10 -7.73091 5.47488 -0.417314 -4.40858e-09 1.19053e-09 4.03698e-10 -2.90554 0.965183 -0.102902 -4.40859e-09 1.19053e-09 4.03697e-10 -10.2786 0.731801 -0.0259123 -4.40858e-09 1.19053e-09 4.03695e-10 -2.22167 -0.733487 0.20892 -2.03217e-16 0.0 -3.88251e-19 1.52526 20.5356 -5.51012 -0.0209028 -1.02988 -0.0240941 -0.023468 19.0566 -2.07996 2.03217e-16 0.0 3.88251e-19 38.0264 -70.7164 59.3851 0.540844 49.9373 -1.14869 -0.819412 -0.23569 -4.01213
-38.2457 76.4548 38.2319 -49.4578 64.8399 -23.5584 9.64955 34.714 8.06656 -2.22936 -0.332708 3.36899 -4.8015 9.31745 -1.70716 31.8386 -53.1737 14.6853 -0.0 0.0 0.0 -0.0 0.0 0.0 2.24325e-13 3.15419e-12 -5.4981e-13 76.8412 -8.41962 23.8483 -26.5412 -24.8916 59.4183 -2.87027 -42.3275 -7.36671 1.7052e-09 2.61484e-09 -2.13758e-09 3.01051e-09 4.32297e-09 -3.64199e-09 1.7052e-09 2.61484e-09 -2.13758e-09 7.73091 5.47488 0.417314 1.7052e-09 2.61485e-09 -2.13758e-09 2.90554 0.965183 0.102902 1.70521e-09 2.61485e-09 -2.13758e-09 10.2786 0.731801 0.0259123 1.70519e-09 2.61484e-09 -2.13757e-09 2.22167 -0.733487 -0.20892 2.24219e-13 3.15419e-12 -5.49956e-13 -107.696 42.4873 39.6805 19.1421 -11.966 -36.6457 0.487961 -19.4465 2.84438 -2.76711e-09 6.68489e-10 -2.44071e-10 -4.77197e-09 1.1352e-09 -4.64012e-10 -2.76712e-09 6.68493e-10 -2.44047e-10 -7.73091 5.47488 -0.417314 -2.76711e-09 6.68491e-10 -2.44066e-10 -2.90554 0.965183 -0.102902 -2.76711e-09 6.68491e-10 -2.44068e-10 -10.2786 0.731801 -0.0259123 -2.76711e-09 6.68493e-10 -2.44069e-10 -2.22167 -0.733487 0.20892 -2.03217e-16 0.0 -3.88251e-19 3.25818 21.9524 -4.11693 -0.03933 0.98384 -0.0657265 0.0865582 18.2651 -2.57891 2.03217e-16 0.0 3.88251e-19 36.5252 -70.1765 56.9789 0.474535 47.8812 -1.02953 -0.739461 0.453665 -3.06475
-35.0655 76.4227 39.4983 -52.9154 64.4149 -27.0962 10.7236 34.2461 6.08945 -1.74374 -0.210775 2.9312 -6.15475 9.15915 -0.929303 34.6098 -52.3668 17.8887 -0.0 0.0 0.0 -0.0 0.0 0.0 1.35126e-13 1.68268e-12 -3.81956e-13 77.0658 -6.5346 21.7993 -26.9573 -26.2071 61.3293 -3.13216 -43.8223 -7.75864 1.50665e-09 2.72874e-09 -2.09477e-09 2.66805e-09 4.5074e-09 -3.56608e-09 1.50665e-09 2.72874e-09 -2.09478e-09 7.73091 5.47488 0.417314 1.50664e-09 2.72874e-09 -2.09477e-09 2.90554 0.965183 0.102902 1.50666e-09 2.72874e-09 -2.09477e-09 10.2786 0.731801 0.0259123 1.50664e-09 2.72874e-09 -2.09476e-09 2.22167 -0.733487 -0.20892 1.35033e-13 1.68269e-12 -3.82154e-13 -106.877 40.8524 36.834 18.9847 -11.782 -36.2797 0.494229 -19.567 2.86343 -1.07293e-09 7.77486e-11 -7.82408e-10 -1.83792e-09 1.22121e-10 -1.37221e-09 -1.07293e-09 7.77517e-11 -7.82387e-10 -7.73091 5.47488 -0.417314 -1.07293e-09 7.77497e-11 -7.82402e-10 -2.90554 0.965183 -0.102902 -1.07293e-09 7.77493e-11 -7.82406e-10 -10.2786 0.731801 -0.0259123 -1.07292e-09 7.77518e-11 -7.82406e-10 -2.22167 -0.733487 0.20892 -2.03217e-16 0.0 -3.88251e-19 4.83137 22.3731 -3.09987 -0.0470094 4.93324 -0.0749296 0.129674 16.7897 -3.00223 2.03217e-16 0.0 3.88251e-19 34.6796 -69.6299 54.1996 0.456659 46.6238 -0.923138 -0.671655 0.830768 -1.86292
-32.1646 76.0954 40.7027 -56.0365 63.9041 -30.3841 11.2545 33.751 4.48386 -1.41593 -0.108523 2.52693 -7.07014 8.9922 -0.267791 36.8568 -51.6619 20.5211 -0.0 0.0 0.0 -0.0 0.0 0.0 7.95641e-14 6.23777e-13 -2.55886e-13 77.5523 -4.82221 19.5683 -27.3305 -27.5116 63.2875 -3.45561 -45.5136 -8.2263 1.52155e-09 1.83981e-09 -1.75554e-09 2.68084e-09 2.96889e-09 -2.97392e-09 1.52156e-09 1.83981e-09 -1.75555e-09 7.73091 5.47488 0.417314 1.52155e-09 1.83981e-09 -1.75555e-09 2.90554 0.965183 0.102902 1.52156e-09 1.83981e-09 -1.75554e-09 10.2786 0.731801 0.0259123 1.52155e-09 1.83981e-09 -1.75553e-09 2.22167 -0.733487 -0.20892 7.94687e-14 6.23795e-13 -2.56134e-13 -105.754 39.6495 33.9846 18.7735 -11.5432 -35.7795 0.491016 -19.5139 2.85489 -3.72009e-10 -3.17795e-10 -8.31359e-10 -6.26314e-10 -5.55802e-10 -1.44639e-09 -3.72014e-10 -3.17792e-10 -8.3134e-10 -7.73091 5.47488 -0.417314 -3.72009e-10 -3.17794e-10 -8.31352e-10 -2.90554 0.965183 -0.102902 -3.72015e-10 -3.17794e-10 -8.31356e-10 -10.2786 0.731801 -0.0259123 -3.72002e-10 -3.17792e-10 -8.31356e-10 -2.22167 -0.733487 0.20892 -2.03217e-16 0.0 -3.88251e-19 5.89404 21.9186 -2.69757 -0.0497942 10.1429 -0.0424031 0.0819717 15.3625 -3.02368 2.03217e-16 0.0 3.88251e-19 32.5361 -69.1113 51.2877 0.486826 46.3344 -0.829387 -0.586426 0.336231 -0.392459
